. 
 
http://www.torrenting.com          :     Once & For all ;)


               www . Torrenting . Com 

(((((((((((((= Enjoy No RAR releases =))))))))))))))))))))


...................................NFO:....................................

.                                                                                                     
       
     
     
       
       
     
     
                                         
                                         
                EXVID                    
                                         
         
                                         
         Filled the Archives             
                                         
         
                                         
                With:                    
                                         
         
                                         
                                    
     E240                           
                                    
     SP               (C) 2009      
                                         
     
     
     
                                                                                  
                                                                                   
                  Narrow.Margin.1990.iNTERNAL.DVDRip.XviD-EXViDiNT                  
                                                                                   
                                                                                  
     
                                                                                               
EXViD aims to iNTERNAL those releases which have been lost in the archives.
EXViD aims to PRE non-internal releases which have poor sources and are likely skipped by others. 
http://www.imdb.com/title/tt0100224/
Subtitles: None
Date: 2012.01

Director: Peter Hyams

Genres: Action | Crime | Thriller

Plot:
A woman secretly witnesses the murder of her blind date for the evening by a top Mafia boss. She
immediately goes into hiding without informing the authorities. When they finally catch up with
her, she is unwilling to testify to what she has seen, but the Mafia are on her trail.
Accompanied by a deputy district attorney, the woman boards a train travelling through a remote
part of Canada. The Mafia know him but they have never seen her.

Cast:
Gene Hackman	...	Caulfield
Anne Archer	...	Hunnicut
James Sikking	...	Nelson (as James B. Sikking)
J.T. Walsh	...	Michael Tarlow
M. Emmet Walsh	...	Sgt. Dominick Benti (as M. Emmett Walsh)
Susan Hogan	...	Kathryn Weller
Nigel Bennett	...	Jack Wootton
J.A. Preston	...	Martin Larner
B.A. 'Smitty' Smith	...	Keller
Codie Lucas Wilbee	...	Nicholas
Barbara Russell	...	Nicholas' Mother (as Barbara E. Russell)
Antony Holland	...	Elderly Man
Doreen Ramos	...	Elderly Woman
Kevin McNulty	...	James Dahlbeck
Andrew Rhodes	...	Nigro

Stats:
Format                                   : AVI
Format/Info                              : Audio Video Interleave
File size                                : 703 MiB
Duration                                 : 1h 36mn
Overall bit rate mode                    : Variable
Overall bit rate                         : 1 013 Kbps

Video
ID                                       : 0
Format                                   : MPEG-4 Visual
Format profile                           : Advanced Simple@L5
Format settings, BVOP                    : 2
Format settings, QPel                    : No
Format settings, GMC                     : No warppoints
Format settings, Matrix                  : Default (H.263)
Codec ID                                 : XVID
Codec ID/Hint                            : XviD
Duration                                 : 1h 36mn
Bit rate                                 : 855 Kbps
Width                                    : 608 pixels
Height                                   : 272 pixels
Display aspect ratio                     : 2.25:1
Frame rate                               : 23.976 fps
Color space                              : YUV
Chroma subsampling                       : 4:2:0
Bit depth                                : 8 bits
Scan type                                : Progressive
Compression mode                         : Lossy
Bits/(Pixel*Frame)                       : 0.216
Stream size                              : 593 MiB (84%)
Writing library                          : XviD 64

Audio
ID                                       : 1
Format                                   : MPEG Audio
Format version                           : Version 1
Format profile                           : Layer 3
Mode                                     : Joint stereo
Mode extension                           : MS Stereo
Codec ID                                 : 55
Codec ID/Hint                            : MP3
Duration                                 : 1h 36mn
Bit rate mode                            : Variable
Bit rate                                 : 146 Kbps
Channel(s)                               : 2 channels
Sampling rate                            : 48.0 KHz
Compression mode                         : Lossy
Stream size                              : 101 MiB (14%)
Alignment                                : Aligned on interleaves
Interleave, duration                     : 24 ms (0.58 video frame)
Interleave, preload duration             : 427 ms



Release notes:
Enjoy!

Looking for:
75TB+ Archives
DUTCH/FLEMiSH Archives
                                                                                                    
Greets: CRBS EPiSODE FiCO FLS iLS KLASSiGER LiPSYNC MADE NODLABS RUNNER SPRiNTER      
   

                                                                    ASCII DONE BY XX^NFO 2oo9